<svg width="160" height="48" viewBox="0 0 160 48" fill="none" xmlns="http://www.w3.org/2000/svg">
<path d="M39.1602 14.3299V17.841C39.1602 19.069 38.5846 20.2202 37.5869 20.9301L16.4814 36.3947C15.1192 37.3924 13.2581 37.3924 11.915 36.3755L9.15209 34.3033C7.90495 33.3631 6.88805 31.3293 6.88805 29.7752V14.3299C6.88805 12.1809 8.53812 9.80178 10.5527 9.05349L21.0479 5.1202C22.1415 4.71728 23.9067 4.71728 25.0004 5.1202L35.4956 9.05349C37.5102 9.80178 39.1602 12.1809 39.1602 14.3299Z" fill="#242450"/>
<path d="M36.1095 24.6524C37.3759 23.7314 39.1602 24.6332 39.1602 26.2065V29.8136C39.1602 31.3677 38.1433 33.3823 36.8962 34.3225L26.401 42.1699C25.4801 42.8414 24.2521 43.1868 23.0241 43.1868C21.7962 43.1868 20.5682 42.8414 19.6473 42.1507L18.0548 40.9611C17.0187 40.1936 17.0187 38.6395 18.074 37.872L36.1095 24.6524Z" fill="#242450"/>
<path d="M57.5831 33.5H51.9534L58.861 12.6165H66.2651L73.0705 33.5H67.3239L66.1556 29.2284H58.7734L57.5831 33.5ZM59.9563 24.964H64.9946L62.4973 15.8293L59.9563 24.964ZM77.7226 25.446C77.7226 28.1185 78.8763 29.5643 80.9062 29.5643C82.5637 29.5643 83.4181 28.5566 83.7174 26.994H88.7777C88.2592 31.1415 85.207 33.9381 80.9062 33.9381C76.0504 33.9381 72.5966 30.6084 72.5966 25.446C72.5966 20.2762 76.0504 16.9611 80.9062 16.9611C85.207 16.9611 88.2665 19.7505 88.7777 23.9053H83.7174C83.4181 22.3427 82.571 21.335 80.9062 21.335C78.8763 21.335 77.7226 22.7735 77.7226 25.446ZM94.8935 25.446C94.8935 28.1185 96.0472 29.5643 98.0771 29.5643C99.7347 29.5643 100.589 28.5566 100.888 26.994H105.949C105.43 31.1415 102.378 33.9381 98.0771 33.9381C93.2213 33.9381 89.7675 30.6084 89.7675 25.446C89.7675 20.2762 93.2213 16.9611 98.0771 16.9611C102.378 16.9611 105.437 19.7505 105.949 23.9053H100.888C100.589 22.3427 99.742 21.335 98.0771 21.335C96.0472 21.335 94.8935 22.7735 94.8935 25.446ZM118.395 27.987H123.083C122.178 31.6818 119.169 33.9381 115.182 33.9381C110.268 33.9381 106.938 30.5062 106.938 25.4387C106.938 20.3784 110.232 16.9611 115.095 16.9611C119.936 16.9611 123.156 20.3346 123.156 25.4241C123.156 25.8184 123.134 26.2346 123.09 26.6362H111.765C112.013 28.7757 113.306 30.0243 115.328 30.0243C116.818 30.0243 117.826 29.3452 118.395 27.987ZM111.802 23.8615H118.381C118.03 21.8169 116.935 20.7873 115.124 20.7873C113.277 20.7873 112.116 21.8753 111.802 23.8615ZM139.761 17.3992L134.971 25.3364L140.243 33.5H134.38L131.043 27.7753L127.801 33.5H122.244L127.217 25.4022L122.178 17.3992H128.049L131.145 23.0655L134.205 17.3992H139.761ZM158.187 17.3992L153.397 25.3364L158.669 33.5H152.806L149.469 27.7753L146.227 33.5H140.67L145.643 25.4022L140.604 17.3992H146.475L149.571 23.0655L152.631 17.3992H158.187Z" fill="#242450"/>
</svg>
