<svg width="52" height="52" viewBox="0 0 52 52" fill="none" xmlns="http://www.w3.org/2000/svg">
<rect width="52" height="52" rx="26" fill="#E7F0FE"/>
<path d="M34.5104 20.7139C33.8743 20.9953 33.1996 21.1801 32.5088 21.2622C33.2366 20.8266 33.7812 20.1412 34.0411 19.3339C33.3573 19.7402 32.6088 20.0261 31.8282 20.1793C31.1693 19.4764 30.2483 19.078 29.2848 19.0791C27.3605 19.0791 25.7998 20.6393 25.7998 22.5645C25.7998 22.8376 25.8311 23.1025 25.8897 23.3581C22.9921 23.2122 20.4251 21.8255 18.7057 19.7167C18.3961 20.2485 18.2334 20.8531 18.2342 21.4685C18.2342 22.6776 18.8497 23.7449 19.7846 24.3697C19.2311 24.3522 18.6899 24.2027 18.206 23.9336C18.2055 23.9482 18.2055 23.9629 18.2055 23.9767C18.2055 25.6658 19.4068 27.0748 21.0017 27.3947C20.7023 27.4757 20.3936 27.5167 20.0835 27.5164C19.8583 27.5164 19.6398 27.4957 19.4273 27.4549C19.8711 28.8392 21.1574 29.8471 22.683 29.8747C21.4484 30.8437 19.9239 31.3693 18.3545 31.3671C18.0768 31.3673 17.7992 31.3509 17.5234 31.3181C19.1167 32.3423 20.9713 32.8859 22.8654 32.8839C29.2763 32.8839 32.7817 27.5734 32.7817 22.9681C32.7817 22.8174 32.778 22.6662 32.7713 22.5171C33.4536 22.0242 34.0425 21.4135 34.5104 20.7139Z" fill="#0F67F5"/>
</svg>
